# xmcd
#
# Track frame offsets:
# 150
# 14628
# 30183
# 44909
# 59266
# 75643
# 91246
# 106755
# 124236
#
# Disc length: 1887 seconds
#
#
# Revision: 0
# Processed by: cddbd v1.5.2PL0 Copyright (c) Steve Scherf et al.
# Submitted via: FreeRIP 2.96 
#
DISCID=6c075d09
DTITLE=marco aurelio e paulo sergio - 
DYEAR=2007
DGENRE=sertanejo
TTITLE0=labirinto
TTITLE1=amor casual
TTITLE2=magica ou sonho
TTITLE3=só da voce
TTITLE4=apaixonado por voce
TTITLE5=deletei
TTITLE6=deixa violar
TTITLE7=mil perdoes
TTITLE8=novela das oito
EXTD=
EXTT0=
EXTT1=
EXTT2=
EXTT3=
EXTT4=
EXTT5=
EXTT6=
EXTT7=
EXTT8=
PLAYORDER=
